<svg width="10" height="8" viewBox="0 0 10 8" fill="none" xmlns="http://www.w3.org/2000/svg">
<path d="M3.33341 5.33333L8.25008 0.416666C8.40286 0.263889 8.5973 0.1875 8.83342 0.1875C9.06953 0.1875 9.26397 0.263889 9.41675 0.416666C9.56952 0.569444 9.64592 0.763888 9.64592 1C9.64592 1.23611 9.56952 1.43056 9.41675 1.58333L3.91675 7.08333C3.75008 7.25 3.55564 7.33333 3.33341 7.33333C3.11119 7.33333 2.91675 7.25 2.75008 7.08333L0.583414 4.91667C0.430637 4.76389 0.354248 4.56944 0.354248 4.33333C0.354248 4.09722 0.430637 3.90278 0.583414 3.75C0.736192 3.59722 0.930637 3.52083 1.16675 3.52083C1.40286 3.52083 1.5973 3.59722 1.75008 3.75L3.33341 5.33333Z" fill="#F5F5F5"/>
</svg>
