<svg width="10" height="18" viewBox="0 0 10 18" fill="none" xmlns="http://www.w3.org/2000/svg">
<path d="M10 8.66211C9.99023 8.32031 9.86328 8.02734 9.59961 7.76367L2.00195 0.332031C1.77734 0.117188 1.51367 0 1.19141 0C0.537109 0 0.0292969 0.507812 0.0292969 1.16211C0.0292969 1.47461 0.15625 1.76758 0.380859 1.99219L7.2168 8.66211L0.380859 15.332C0.15625 15.5566 0.0292969 15.8398 0.0292969 16.1621C0.0292969 16.8164 0.537109 17.3242 1.19141 17.3242C1.50391 17.3242 1.77734 17.207 2.00195 16.9922L9.59961 9.55078C9.87305 9.29688 10 9.00391 10 8.66211Z" fill="#4E4C4C"/>
</svg>
