<svg width="36" height="36" viewBox="0 0 36 36" fill="none" xmlns="http://www.w3.org/2000/svg">
<g clip-path="url(#clip0_166_1423)">
<path fill-rule="evenodd" clip-rule="evenodd" d="M17.9999 21.1814L25.9544 29.1374C26.3765 29.5595 26.949 29.7966 27.5459 29.7966C28.1428 29.7966 28.7153 29.5595 29.1374 29.1374C29.5595 28.7153 29.7966 28.1428 29.7966 27.5459C29.7966 26.949 29.5595 26.3765 29.1374 25.9544L21.1799 17.9999L29.1359 10.0454C29.3448 9.83642 29.5105 9.58832 29.6235 9.31529C29.7365 9.04226 29.7947 8.74964 29.7946 8.45414C29.7945 8.15864 29.7362 7.86605 29.6231 7.59307C29.51 7.32009 29.3441 7.07207 29.1351 6.86317C28.9261 6.65427 28.678 6.48858 28.405 6.37556C28.132 6.26254 27.8394 6.20441 27.5439 6.20448C27.2484 6.20455 26.9558 6.26282 26.6828 6.37597C26.4098 6.48912 26.1618 6.65492 25.9529 6.86392L17.9999 14.8184L10.0454 6.86392C9.83794 6.64893 9.58975 6.4774 9.31529 6.35935C9.04084 6.24131 8.74563 6.1791 8.44687 6.17636C8.14812 6.17363 7.85182 6.23042 7.57525 6.34342C7.29868 6.45642 7.04739 6.62337 6.83603 6.83453C6.62467 7.04569 6.45748 7.29682 6.34422 7.57329C6.23096 7.84975 6.17389 8.146 6.17635 8.44475C6.1788 8.74351 6.24073 9.03878 6.35852 9.31334C6.47631 9.58791 6.6476 9.83626 6.86239 10.0439L14.8199 17.9999L6.8639 25.9544C6.4418 26.3765 6.20467 26.949 6.20467 27.5459C6.20467 28.1428 6.4418 28.7153 6.8639 29.1374C7.28599 29.5595 7.85847 29.7966 8.45539 29.7966C9.05232 29.7966 9.6248 29.5595 10.0469 29.1374L17.9999 21.1799V21.1814Z" fill="black"/>
</g>
<defs>
<clipPath id="clip0_166_1423">
<rect width="36" height="36" fill="white"/>
</clipPath>
</defs>
</svg>
