<svg width="29" height="29" viewBox="0 0 29 29" fill="none" xmlns="http://www.w3.org/2000/svg">
<path d="M19.038 6.47754L21.6438 9.08214M20.7137 4.18299L13.6677 11.2291C13.3036 11.5926 13.0553 12.0558 12.9541 12.5603L12.3032 15.8182L15.5611 15.1661C16.0656 15.0652 16.5282 14.8179 16.8923 14.4537L23.9384 7.40767C24.1501 7.19593 24.3181 6.94457 24.4327 6.66792C24.5473 6.39128 24.6063 6.09477 24.6063 5.79533C24.6063 5.49589 24.5473 5.19938 24.4327 4.92274C24.3181 4.64609 24.1501 4.39473 23.9384 4.18299C23.7267 3.97125 23.4753 3.8033 23.1987 3.68871C22.922 3.57412 22.6255 3.51514 22.3261 3.51514C22.0266 3.51514 21.7301 3.57412 21.4535 3.68871C21.1768 3.8033 20.9255 3.97125 20.7137 4.18299V4.18299Z" stroke="white" stroke-width="2" stroke-linecap="round" stroke-linejoin="round"/>
<path d="M21.9698 17.8687V21.3838C21.9698 22.0053 21.7229 22.6014 21.2834 23.0409C20.8439 23.4803 20.2479 23.7272 19.6264 23.7272H6.73748C6.11596 23.7272 5.5199 23.4803 5.08042 23.0409C4.64094 22.6014 4.39404 22.0053 4.39404 21.3838V8.49492C4.39404 7.87341 4.64094 7.27734 5.08042 6.83787C5.5199 6.39839 6.11596 6.15149 6.73748 6.15149H10.2526" stroke="white" stroke-width="2" stroke-linecap="round" stroke-linejoin="round"/>
</svg>
