<svg width="36" height="36" viewBox="0 0 36 36" fill="none" xmlns="http://www.w3.org/2000/svg">
<path d="M11.6443 31.9133C9.51094 31.0538 8.00121 29.583 7.11509 27.501C6.22897 25.419 6.21569 23.3113 7.07524 21.178L12.9613 6.56916C13.5779 5.03872 14.6507 3.94812 16.1797 3.29738C17.7087 2.64663 19.2384 2.62958 20.7689 3.24622C22.2993 3.86285 23.3899 4.93566 24.0406 6.46464C24.6914 7.99362 24.7084 9.52333 24.0918 11.0538L18.7663 24.2713C18.3739 25.2452 17.706 25.9329 16.7626 26.3344C15.8192 26.7359 14.8605 26.7405 13.8866 26.3481C12.9127 25.9557 12.225 25.2878 11.8234 24.3444C11.4219 23.401 11.4174 22.4423 11.8098 21.4684L17.1352 8.25089L19.2222 9.09176L13.8967 22.3092C13.7379 22.7034 13.7382 23.0879 13.8977 23.4627C14.0572 23.8374 14.3338 24.1036 14.7275 24.2611C15.1217 24.42 15.5062 24.4196 15.8809 24.2601C16.2557 24.1006 16.5218 23.824 16.6794 23.4304L22.0048 10.2129C22.3972 9.23899 22.3927 8.28033 21.9912 7.33691C21.5896 6.3935 20.9019 5.72559 19.928 5.33319C18.9541 4.94078 17.9954 4.94534 17.052 5.34686C16.1086 5.74839 15.4407 6.43611 15.0483 7.41003L9.16221 22.0188C8.54558 23.5493 8.56263 25.079 9.21337 26.608C9.86412 28.1369 10.9547 29.2097 12.4852 29.8264C14.0156 30.443 15.5453 30.426 17.0743 29.7752C18.6033 29.1245 19.6761 28.0339 20.2927 26.5034L26.1788 11.8946L28.2658 12.7355L22.3797 27.3443C21.5201 29.4776 20.0494 30.9874 17.9673 31.8735C15.8853 32.7596 13.7776 32.7729 11.6443 31.9133Z" fill="#727272"/>
</svg>
