<svg width="36" height="36" viewBox="0 0 36 36" fill="none" xmlns="http://www.w3.org/2000/svg">
<path d="M27.4503 8.565C27.3116 8.42594 27.1467 8.31562 26.9653 8.24035C26.7838 8.16508 26.5893 8.12633 26.3928 8.12633C26.1964 8.12633 26.0019 8.16508 25.8204 8.24035C25.6389 8.31562 25.4741 8.42594 25.3353 8.565L18.0003 15.885L10.6653 8.55C10.5265 8.41113 10.3616 8.30097 10.1802 8.22581C9.9987 8.15065 9.80423 8.11197 9.60784 8.11197C9.41144 8.11197 9.21697 8.15065 9.03552 8.22581C8.85407 8.30097 8.68921 8.41113 8.55034 8.55C8.41146 8.68887 8.3013 8.85374 8.22614 9.03518C8.15099 9.21663 8.1123 9.4111 8.1123 9.6075C8.1123 9.8039 8.15099 9.99837 8.22614 10.1798C8.3013 10.3613 8.41146 10.5261 8.55034 10.665L15.8853 18L8.55034 25.335C8.41146 25.4739 8.3013 25.6387 8.22614 25.8202C8.15099 26.0016 8.1123 26.1961 8.1123 26.3925C8.1123 26.5889 8.15099 26.7834 8.22614 26.9648C8.3013 27.1463 8.41146 27.3111 8.55034 27.45C8.68921 27.5889 8.85407 27.699 9.03552 27.7742C9.21697 27.8493 9.41144 27.888 9.60784 27.888C9.80423 27.888 9.9987 27.8493 10.1802 27.7742C10.3616 27.699 10.5265 27.5889 10.6653 27.45L18.0003 20.115L25.3353 27.45C25.4742 27.5889 25.6391 27.699 25.8205 27.7742C26.002 27.8493 26.1964 27.888 26.3928 27.888C26.5892 27.888 26.7837 27.8493 26.9651 27.7742C27.1466 27.699 27.3115 27.5889 27.4503 27.45C27.5892 27.3111 27.6994 27.1463 27.7745 26.9648C27.8497 26.7834 27.8884 26.5889 27.8884 26.3925C27.8884 26.1961 27.8497 26.0016 27.7745 25.8202C27.6994 25.6387 27.5892 25.4739 27.4503 25.335L20.1153 18L27.4503 10.665C28.0203 10.095 28.0203 9.135 27.4503 8.565Z" fill="white"/>
</svg>
