<svg id="Слой_1" data-name="Слой 1" xmlns="http://www.w3.org/2000/svg" viewBox="0 0 771.45 279.68"><defs><style>.cls-1{fill:#c5003e;}</style></defs><path class="cls-1" d="M294.9,43.24C297.68,44,302,44.3,312,44.3h37.79c6.75,0,15.24-.35,17.34-.94A60.79,60.79,0,0,0,366,53.63c-1.85-1.18-5.11-1.77-12.79-2.24-4.19-.24-9.65-.48-18.49-.48v48c0,15,.47,29.84.92,34.09a30.37,30.37,0,0,0-4.76-.22,61,61,0,0,0-7.09.35c.57-4,.93-18.89.93-34.22v-48c-5.35,0-8.37,0-16.06.24S296.06,52,293,53a73,73,0,0,0,1.87-9.8"/><path class="cls-1" d="M374.68,89.46c0-24.4,15.82-47.06,44.93-47.06,26.24,0,43.44,19.35,43.44,44,0,27.25-17.07,48.36-44.81,48.48-29.92.11-43.56-24.19-43.56-45.43m77.49-.22C452.17,64.69,436.7,49,417.55,49c-19.72,0-32,16.06-32,37.87.11,24.79,14.44,41.29,34.83,41.29,13.76,0,31.76-9.9,31.76-38.92"/><path class="cls-1" d="M538.25,99.18c0,15.21.36,29.44,1,34.6a47.44,47.44,0,0,0-5.35-.25c-2.78,0-5.59.25-6.63.36.59-4.67.93-20.83.93-36.38V88.77c-5.22,2-12.67,3-18.15,3-12.32,0-19.18-3.58-23.6-9.45-2.68-3.58-4.88-8.61-4.88-18.55,0-13-.34-17.12-.93-20.23.93.11,3.71.24,5.11.24,2.09,0,5.35-.24,6.52-.36a188.34,188.34,0,0,0-.7,19.86c0,14.61,7.56,21.67,21.63,21.67,6.39,0,11.74-1,15-2.27V76.07c0-17.12-.34-28.24-.93-32.55a31.92,31.92,0,0,0,5.24.24,54.28,54.28,0,0,0,6.61-.36c-.45,4.19-.92,17.71-.92,34.72Z"/><path class="cls-1" d="M579.77,78c0-17-.23-31.35-1.06-34.47a32.68,32.68,0,0,0,4.9.23,49.9,49.9,0,0,0,7-.34c-.35,4.43-.81,17.7-.81,34.7V99.18c0,15.2.34,31.12,1,34.59-1-.11-2.9-.23-4.52-.23a59.41,59.41,0,0,0-7.33.36c.45-4.07.81-19.17.81-34.72ZM591,87.11a.92.92,0,0,1,.11-.94c4.81-4.36,16.73-16.75,25.68-27.25,7.09-7.91,11.34-13.45,11.92-14.75a36.87,36.87,0,0,0,4,.23c4.12,0,7.67-.23,9.51-.34a143.19,143.19,0,0,0-15,13.57C623.8,61.4,603.41,82.4,601,85.23c7.11,8.61,23.84,26.43,30.6,33.38,11,11.09,14.89,13.21,16.95,13.92-.8.59-4.57.94-6.63.94-7,0-11.23-1.65-18.46-9.67C612.23,112.23,601.11,98.67,591,87.11"/><path class="cls-1" d="M679.84,101.82a.51.51,0,0,0-.56.35c-3.57,10.26-8.84,25.36-10.21,30.92a23.11,23.11,0,0,0-4.59-.23,60.12,60.12,0,0,0-6.07.35c2.86-6.25,7.22-16.64,11.81-28.08L692.91,47.2c1.37-3.42,2-4.84,2.64-4.84s1.15.94,2.74,4.84c1.27,3,12.5,29.37,22.36,53.33,5.15,12.62,11.57,28,14.56,32.56-2.08-.12-4-.23-5.27-.23a58.87,58.87,0,0,0-7.47.35c-1.82-5.44-8.13-21.48-12-31-.11-.24-.11-.35-.45-.35Zm27.74-7c.22,0,.35-.11.22-.48L694.28,60,681.79,94.34c-.11.37,0,.48.24.48Z"/><path class="cls-1" d="M289.08,171.1l-15,40.82c-3.56,10.27-8.84,25.37-10.21,30.92a23.39,23.39,0,0,0-4.7-.24c-2.28,0-5.16.24-6.07.35,2.86-6.25,7.22-16.64,11.81-28.08l22.69-57.93c1.49-3.42,2.06-4.82,2.75-4.82.46,0,1,.92,2.64,4.82,1.26,3,12.49,29.38,22.34,53.33,5.16,12.62,11.58,28,14.55,32.57-2.06-.13-4-.24-5.25-.24a58.87,58.87,0,0,0-7.47.35c-1.71-5.19-8-21.35-11.79-31Z"/><path class="cls-1" d="M356.89,188c-.19-16.88-.54-30.8-1.34-34.1a26.6,26.6,0,0,0,4.7.24c2.74,0,6.2-.24,7-.36-.36,4.37-.8,17.1-.86,33.16v3.65c.06.35.28.48.62.29h19.25a.45.45,0,0,0,.69-.41c2.88-20.29,17-38.33,41.95-38.33s42,19.93,42,44.93c0,26.68-15.37,47.55-42.65,47.55-28.19,0-41.26-22.89-41.71-45.42a.78.78,0,0,0-.46-.82H367c-.34.23-.56.36-.62.82v9.56c.06,15,.62,30.68,1.08,34.1-.91-.11-3.32-.24-5.05-.24a47.37,47.37,0,0,0-6.65.35c.47-4,.93-16.64,1.12-34.21Zm103,11.09c0-24-14-40.59-32.22-40.59-19.7,0-30.71,16.75-30.71,37,0,26.54,14.22,42.48,33,42.48,13.4,0,29.91-9.21,29.91-38.93"/><path class="cls-1" d="M511.41,191.36h7.23c9.71,0,17.25,1.76,22.38,4.69,8,4.58,11.87,12.22,11.87,21.5,0,14-10.73,25.84-30.24,25.84-9.48,0-14-.92-17.47-.92a40.94,40.94,0,0,0-4.57.22c.35-6,.8-12,.8-33.94V188.43c0-16.81-.34-31.27-1.13-34.2,1.26.11,3.64.11,5,.11H528.7c7.75,0,14.72.13,16.89-.57-.69,2.69-.69,6.44-.8,9.63-1.94-1.29-5.36-1.66-12.78-2.12-4.92-.24-11.76-.35-20.21-.35-.22,0-.46.11-.46.59-.11,4-.33,17.15-.33,29.36,0,.37.11.48.46.48m-.56,17.5c0,22,.23,25.71.69,26.08,1.73,1.29,6,2.1,11.92,2.1,9.73,0,19.15-5.89,19.15-18.5,0-7.1-1.84-12.16-7.58-16.17-4.46-3.31-10.88-4.72-18.33-4.72-2,0-4.47.12-5.51.23-.23,0-.34.24-.34.48Z"/><path class="cls-1" d="M584.94,188c0-16.87-.33-29.85-1.13-34.1,1.48.11,3.55.24,5.14.24,4.25,0,9.86-.48,15.6-.48,19.48,0,24.29,11.92,24.29,20.65a21.78,21.78,0,0,1-11,19c9.62,2.94,18.79,10.26,18.79,23.71s-9.51,26.54-29.8,26.54c-7.92,0-13.41-.7-16.05-.83a61.55,61.55,0,0,0-6.65.13c.47-4.73.8-18.76.8-34.1Zm9.51,2.94a.59.59,0,0,0,.44.59c2.19.11,11.48.24,13.3.24,2.08,0,3-.13,4.36-1.07,4.7-3.18,7-8.84,7-14,0-10-6-16.75-17.53-16.75a36.76,36.76,0,0,0-7.22.47.73.73,0,0,0-.33.72Zm24.17,11.68c-4-3.31-8.82-4.12-13.63-4.36-3.67-.24-9.06-.24-10.1-.13-.33.13-.44.24-.44.48v10.15c0,20.41.22,25.49.55,25.95,1.16,1.18,5.63,2.37,12.17,2.37,9.74,0,19-5.79,19-18.65,0-5.31-1.13-10.73-7.56-15.81"/><path class="cls-1" d="M670.27,225.37C682.54,211.56,714.63,171.1,724,161c6.18-6.72,8.25-9,9.06-9s1,.59.91,6.73V184c-.11,23.95.69,53.32,1.26,58.87a45.86,45.86,0,0,0-5.85-.24,34.54,34.54,0,0,0-5.27.35c.91-10.26,1.15-52.26,1.26-71.26-8.82,8.49-48.13,58-59,69.61-2.28,2.48-3.32,3.3-3.77,3.3-.69,0-.93-.71-.93-4.48,0-21.12-.22-77.17-1.26-86.24a41.53,41.53,0,0,0,5.16.24,46.06,46.06,0,0,0,6.19-.36c-.91,9.19-1.26,46.25-1.49,71.61"/><path class="cls-1" d="M174.73,69.4s-30.36-2.92-20.85-17.74c10.56-16.45,38.9-16.53,38.9-16.53,33.31-.81,60.34,29.69,60.35,64h0c0,67.77-102.21,96.68-108.94,137.4-6.72-40.72-108.93-69.62-108.93-137.4,0-33.91,26.43-63.35,59.22-64,.69,0,1.37,0,2.06,0,14.63,0,25.31,6.15,35.23,16.23,6,6.1,9.62,13.08,19.34,16.87A37.21,37.21,0,0,0,174.73,69.4Z"/></svg>