<svg width="36" height="36" viewBox="0 0 36 36" fill="none" xmlns="http://www.w3.org/2000/svg">
<path d="M18 3C19.1935 3 20.3381 3.47411 21.182 4.31802C22.0259 5.16193 22.5 6.30653 22.5 7.5V16.5C22.5 17.6935 22.0259 18.8381 21.182 19.682C20.3381 20.5259 19.1935 21 18 21C16.8065 21 15.6619 20.5259 14.818 19.682C13.9741 18.8381 13.5 17.6935 13.5 16.5V7.5C13.5 6.30653 13.9741 5.16193 14.818 4.31802C15.6619 3.47411 16.8065 3 18 3ZM28.5 16.5C28.5 21.795 24.585 26.16 19.5 26.895V31.5H16.5V26.895C11.415 26.16 7.5 21.795 7.5 16.5H10.5C10.5 18.4891 11.2902 20.3968 12.6967 21.8033C14.1032 23.2098 16.0109 24 18 24C19.9891 24 21.8968 23.2098 23.3033 21.8033C24.7098 20.3968 25.5 18.4891 25.5 16.5H28.5Z" fill="#727272"/>
</svg>
