<svg width="19" height="18" viewBox="0 0 19 18" fill="none" xmlns="http://www.w3.org/2000/svg">
<path d="M7.1411 1.25722C6.83988 0.497902 6.11054 0 5.29949 0H2.57097C1.53319 0 0.691895 0.848341 0.691895 1.89478C0.691895 10.7895 7.84308 18 16.6643 18C17.702 18 18.5431 17.1518 18.5431 16.1053L18.543 13.354C18.543 12.5362 18.0492 11.8009 17.2961 11.4971L14.6824 10.4429C14.006 10.1701 13.2359 10.293 12.6762 10.7633L12.0007 11.3307C11.2126 11.9929 10.0539 11.94 9.32847 11.2085L7.42713 9.29151C6.70174 8.56007 6.64947 7.39154 7.30621 6.59688L7.8689 5.91597C8.3353 5.35163 8.45721 4.57493 8.18663 3.89286L7.1411 1.25722Z" fill="black"/>
</svg>
