<svg width="50" height="50" viewBox="0 0 50 50" fill="none" xmlns="http://www.w3.org/2000/svg">
<circle cx="25" cy="25" r="25" fill="#9F2016"/>
<path d="M22.4244 17.2572C22.1232 16.4979 21.3939 16 20.5828 16H17.8543C16.8165 16 15.9752 16.8483 15.9752 17.8948C15.9752 26.7895 23.1264 34 31.9476 34C32.9854 34 33.8265 33.1518 33.8265 32.1053L33.8264 29.354C33.8264 28.5362 33.3325 27.8009 32.5794 27.4971L29.9658 26.4429C29.2893 26.1701 28.5192 26.293 27.9595 26.7633L27.2841 27.3307C26.496 27.9929 25.3372 27.94 24.6118 27.2085L22.7105 25.2915C21.9851 24.5601 21.9328 23.3915 22.5895 22.5969L23.1522 21.916C23.6186 21.3516 23.7405 20.5749 23.47 19.8929L22.4244 17.2572Z" fill="white"/>
<rect x="13" y="13" width="23.8017" height="24" stroke="#9F2016"/>
</svg>
