<svg width="36" height="36" viewBox="0 0 36 36" fill="none" xmlns="http://www.w3.org/2000/svg">
<path d="M6.6 29.1377C6.1 29.3377 5.625 29.2937 5.175 29.0057C4.725 28.7177 4.5 28.2992 4.5 27.7502V22.1627C4.5 21.8127 4.6 21.5002 4.8 21.2252C5 20.9502 5.275 20.7752 5.625 20.7002L16.5 18.0002L5.625 15.3002C5.275 15.2252 5 15.0502 4.8 14.7752C4.6 14.5002 4.5 14.1877 4.5 13.8377V8.2502C4.5 7.7002 4.725 7.2812 5.175 6.9932C5.625 6.7052 6.1 6.6617 6.6 6.8627L29.7 16.6127C30.325 16.8877 30.6375 17.3502 30.6375 18.0002C30.6375 18.6502 30.325 19.1127 29.7 19.3877L6.6 29.1377Z" fill="#9A1E2D"/>
</svg>
